<svg xmlns:dc="http://purl.org/dc/elements/1.1/" xmlns:cc="http://creativecommons.org/ns#" xmlns:rdf="http://www.w3.org/1999/02/22-rdf-syntax-ns#" xmlns:svg="http://www.w3.org/2000/svg" xmlns="http://www.w3.org/2000/svg" xmlns:sodipodi="http://sodipodi.sourceforge.net/DTD/sodipodi-0.dtd" xmlns:inkscape="http://www.inkscape.org/namespaces/inkscape" viewBox="0 0 12.7 15.875" version="1.1" x="0px" y="0px"><g transform="translate(0,-284.29998)"><path style="" d="m 5.0594,291.38448 a 0.13372873,0.13372873 0 0 0 -0.1333,0.13385 v 0.7674 a 0.13372873,0.13372873 0 0 0 0.1333,0.13382 h 0.7405 a 0.13372873,0.13372873 0 0 0 0.1338,-0.13382 v -0.7674 a 0.13372873,0.13372873 0 0 0 -0.1338,-0.13385 z m 0.107,0.24082 h 0.5265 v 0.55346 H 5.1664 Z" fill="#000000" stroke="none"/><path style="" d="m 3.7675,291.38448 a 0.13372873,0.13372873 0 0 0 -0.1339,0.13385 v 0.7674 a 0.13372873,0.13372873 0 0 0 0.1339,0.13382 H 4.508 a 0.13372873,0.13372873 0 0 0 0.1333,-0.13382 v -0.7674 A 0.13372873,0.13372873 0 0 0 4.508,291.38448 Z m 0.1069,0.24082 H 4.401 v 0.55346 H 3.8744 Z" fill="#000000" stroke="none"/><path style="" d="m 2.475,291.38448 a 0.13372873,0.13372873 0 0 0 -0.1333,0.13385 v 0.7674 a 0.13372873,0.13372873 0 0 0 0.1333,0.13382 h 0.7406 a 0.13372873,0.13372873 0 0 0 0.1338,-0.13382 v -0.7674 a 0.13372873,0.13372873 0 0 0 -0.1338,-0.13385 z m 0.107,0.24082 h 0.5266 v 0.55346 H 2.582 Z" fill="#000000" stroke="none"/><path style="" d="m 1.1831,291.38448 a 0.13372873,0.13372873 0 0 0 -0.1338,0.13385 v 0.7674 a 0.13372873,0.13372873 0 0 0 0.1338,0.13382 h 0.7406 a 0.13372873,0.13372873 0 0 0 0.1333,-0.13382 v -0.7674 a 0.13372873,0.13372873 0 0 0 -0.1333,-0.13385 z m 0.107,0.24082 h 0.5266 v 0.55346 H 1.2901 Z" fill="#000000" stroke="none"/><path style="" d="m 1.1831,292.92702 a 0.13372873,0.13372873 0 0 0 -0.1338,0.13333 v 0.7679 a 0.13372873,0.13372873 0 0 0 0.1338,0.13385 h 0.7406 a 0.13372873,0.13372873 0 0 0 0.1333,-0.13385 v -0.7679 a 0.13372873,0.13372873 0 0 0 -0.1333,-0.13333 z m 0.107,0.2403 h 0.5266 v 0.55396 H 1.2901 Z" fill="#000000" stroke="none"/><path style="" d="m 2.475,292.92702 a 0.13372873,0.13372873 0 0 0 -0.1333,0.13333 v 0.7679 a 0.13372873,0.13372873 0 0 0 0.1333,0.13385 h 0.7406 a 0.13372873,0.13372873 0 0 0 0.1338,-0.13385 v -0.7679 a 0.13372873,0.13372873 0 0 0 -0.1338,-0.13333 z m 0.107,0.2403 h 0.5266 v 0.55396 H 2.582 Z" fill="#000000" stroke="none"/><path style="" d="m 3.7675,292.92702 a 0.13372873,0.13372873 0 0 0 -0.1339,0.13333 v 0.7679 a 0.13372873,0.13372873 0 0 0 0.1339,0.13385 H 4.508 a 0.13372873,0.13372873 0 0 0 0.1333,-0.13385 v -0.7679 A 0.13372873,0.13372873 0 0 0 4.508,292.92702 Z m 0.1069,0.2403 H 4.401 v 0.55396 H 3.8744 Z" fill="#000000" stroke="none"/><path style="" d="m 5.0594,292.92702 a 0.13372873,0.13372873 0 0 0 -0.1333,0.13333 v 0.7679 a 0.13372873,0.13372873 0 0 0 0.1333,0.13385 h 0.7405 a 0.13372873,0.13372873 0 0 0 0.1338,-0.13385 v -0.7679 a 0.13372873,0.13372873 0 0 0 -0.1338,-0.13333 z m 0.107,0.2403 h 0.5265 v 0.55396 H 5.1664 Z" fill="#000000" stroke="none"/><path style="" d="m 6.3518,291.38448 a 0.13372873,0.13372873 0 0 0 -0.1338,0.13385 v 0.7674 a 0.13372873,0.13372873 0 0 0 0.1338,0.13382 h 0.7405 a 0.13372873,0.13372873 0 0 0 0.1339,-0.13382 v -0.7674 a 0.13372873,0.13372873 0 0 0 -0.1339,-0.13385 z m 0.107,0.24082 h 0.5266 v 0.55346 H 6.4588 Z" fill="#000000" stroke="none"/><path style="" d="m 7.6437,291.38448 a 0.13372873,0.13372873 0 0 0 -0.1338,0.13385 v 0.7674 a 0.13372873,0.13372873 0 0 0 0.1338,0.13382 h 0.7405 a 0.13372873,0.13372873 0 0 0 0.1339,-0.13382 v -0.7674 a 0.13372873,0.13372873 0 0 0 -0.1339,-0.13385 z m 0.107,0.24082 h 0.5266 v 0.55346 H 7.7507 Z" fill="#000000" stroke="none"/><path style="" d="m 9.593,284.89909 v 0.30334 l -0.2584,0.15968 v 0.56793 H 9.0101 a 0.10698297,0.10698297 0 0 0 -0.087,0.16949 l 0.1664,0.22995 -0.1214,3.49541 H 6.1977 v -0.26614 h 0.2258 a 0.10698297,0.10698297 0 0 0 0.048,-0.20257 l -1.6883,-0.84026 -1.6877,0.84026 a 0.10698297,0.10698297 0 0 0 0.048,0.20257 h 0.2253 v 0.26614 H 0.7716 v 0.36071 l -0.2419,0.49763 v 4.05971 h 5.4462 v 0.26818 h 0.7658 v 0.24598 H 6.995 v -0.24598 h 0.5296 v 0.24598 h 0.2533 v -0.24598 h 0.5147 v 0.24598 h 0.2532 v -0.24598 h 0.54 v 0.24598 H 9.339 v -0.24598 h 0.2506 v -0.52398 h 2.0924 v 0.50435 l -1.0356,0.20722 -0.011,-0.32298 a 0.13372869,0.13372869 0 0 0 -0.1338,-0.12919 H 9.9843 a 0.13372869,0.13372869 0 0 0 -0.1339,0.13385 v 0.47696 l -4.0307,0.80513 a 0.12040083,0.12040083 0 0 0 0.047,0.23617 l 6.2074,-1.23973 a 0.12038785,0.12038785 0 0 0 -0.047,-0.23614 l -0.1043,0.0206 v -0.69712 h -0.2832 v -3.56309 l -0.2424,-0.49763 v -0.36071 h -0.9374 l -0.1214,-3.49541 0.1658,-0.22995 a 0.10698297,0.10698297 0 0 0 -0.087,-0.16949 h -0.3245 v -0.56793 l -0.2584,-0.15967 v -0.30335 z m 0.1167,0.52813 a 0.13834997,0.13834997 0 0 1 0.1422,0.13798 v 0.36484 H 9.5754 v -0.36484 a 0.13834997,0.13834997 0 0 1 0.1343,-0.13798 z m -0.3798,0.91054 h 0.7679 l 0.022,0.63873 H 9.308 Z m -0.031,0.87953 h 0.8284 l 0.2444,7.02903 H 9.5888 v -0.27387 H 9.0643 Z m -4.516,1.56787 1.0713,0.53329 h -2.143 z m -1.1741,0.77359 H 5.957 v 0.26614 H 3.6088 Z m -2.5972,0.50694 h 7.9478 l -0.019,0.53382 H 0.8375 l 0.1742,-0.35864 z m 9.4557,0 h 0.6884 v 0.17518 l 0.1741,0.35864 h -0.8444 z m -9.6981,0.77412 H 8.932 l -0.1085,3.13264 H 8.5176 v -0.9121 A 0.13372873,0.13372873 0 0 0 8.3837,292.92702 H 7.6432 a 0.13372873,0.13372873 0 0 0 -0.1338,0.13333 v 0.9121 H 7.2257 v -0.9121 A 0.13372873,0.13372873 0 0 0 7.0918,292.92702 H 6.3513 a 0.13372873,0.13372873 0 0 0 -0.1338,0.13333 v 0.9121 H 5.9751 v 0.52967 H 0.7692 Z m 9.725,0 h 0.9038 v 3.40651 h -0.7854 l -0.01,-0.28422 h 0.4149 a 0.13372871,0.13372871 0 0 0 0.1339,-0.13385 v -0.7679 a 0.13372871,0.13372871 0 0 0 -0.1339,-0.13333 h -0.4506 l -0.018,-0.50747 h 0.4693 a 0.13372871,0.13372871 0 0 0 0.1338,-0.13382 v -0.7674 a 0.13372871,0.13372871 0 0 0 -0.1338,-0.13385 h -0.5049 z m 0.027,0.78549 h 0.3891 v 0.55346 h -0.37 z m -4.0633,1.54202 h 0.5266 v 0.80513 H 6.4579 Z m 1.2919,0 h 0.5266 v 0.80513 H 7.7498 Z m 2.8246,0 h 0.3359 v 0.55396 h -0.3162 z m -4.3589,1.04592 h 3.1321 v 0.55759 H 6.2155 Z m 3.8747,0.77412 h 0.307 l 0.01,0.2589 -0.3157,0.063 z" fill="#000000" stroke="none"/><path style="" d="m 9.5799,290.58136 v -0.25222 h 0.2676 v 0.25222 z" fill="#000000" stroke="none"/><path style="" d="m 9.5799,289.82309 v -0.25223 h 0.2676 v 0.25223 z" fill="#000000" stroke="none"/><path style="" d="m 9.5799,286.70717 v -0.25223 h 0.2676 v 0.25223 z" fill="#000000" stroke="none"/></g><text x="0" y="27.7" fill="#000000" font-size="5px" font-weight="bold" font-family="'Helvetica Neue', Helvetica, Arial-Unicode, Arial, Sans-serif">Created by Phạm Thanh Lộc</text><text x="0" y="32.7" fill="#000000" font-size="5px" font-weight="bold" font-family="'Helvetica Neue', Helvetica, Arial-Unicode, Arial, Sans-serif">from the Noun Project</text></svg>